<?xml version="1.0" standalone="no"?>
<!DOCTYPE svg PUBLIC "-//W3C//DTD SVG 20010904//EN"
 "http://www.w3.org/TR/2001/REC-SVG-20010904/DTD/svg10.dtd">
<svg version="1.0" xmlns="http://www.w3.org/2000/svg"
 width="402.000000pt" height="183.000000pt" viewBox="0 0 402.000000 183.000000"
 preserveAspectRatio="xMidYMid meet">

<g transform="translate(0.000000,183.000000) scale(0.100000,-0.100000)"
fill="#000000" stroke="none">
<path d="M805 1814 c-211 -31 -401 -128 -542 -278 -114 -119 -179 -234 -225
-393 -32 -109 -32 -339 1 -458 87 -324 334 -568 660 -652 87 -22 110 -24 241
-20 174 6 228 19 375 91 99 49 226 141 274 199 12 15 10 17 -19 17 -24 0 -45
-12 -85 -48 -371 -330 -960 -270 -1255 127 -59 80 -121 208 -145 301 -26 101
-31 279 -11 381 65 319 300 569 623 661 112 32 324 32 436 0 146 -42 247 -97
354 -194 40 -36 61 -48 85 -48 l32 0 -59 61 c-106 107 -252 190 -405 230 -73
19 -270 33 -335 23z"/>
<path d="M765 1645 c-367 -80 -611 -400 -592 -775 8 -167 60 -300 168 -436 54
-68 165 -158 244 -197 108 -54 190 -71 330 -71 193 0 336 48 464 154 l60 50
1193 0 c970 1 1200 3 1231 14 57 21 103 61 128 113 24 48 24 50 24 413 0 363
0 365 -24 413 -25 52 -71 92 -128 113 -31 11 -260 13 -1229 14 l-1191 0 -62
50 c-164 132 -412 190 -616 145z m68 -80 c-4 -27 1 -44 26 -83 36 -57 39 -90
11 -123 l-21 -24 6 30 c4 23 -2 42 -25 79 -40 62 -47 99 -26 131 23 35 36 31
29 -10z m-171 -47 c-20 -20 -14 -51 18 -101 36 -56 39 -106 10 -132 -20 -18
-20 -18 -14 13 5 25 0 42 -24 79 -16 27 -33 58 -36 70 -10 32 19 82 49 83 5 0
4 -5 -3 -12z m361 -23 c-4 -27 0 -44 21 -75 32 -49 42 -91 27 -119 -16 -30
-28 -26 -29 10 0 16 -14 52 -31 78 -34 53 -39 86 -15 119 22 32 34 27 27 -13z
m7 -295 c98 -13 160 -29 218 -59 45 -23 62 -46 62 -86 0 -24 1 -25 23 -11 53
33 136 26 157 -14 44 -82 -56 -300 -139 -300 -29 0 -66 22 -93 55 -9 11 -18
18 -20 15 -2 -3 -17 -24 -33 -48 -15 -24 -43 -56 -61 -72 l-33 -29 51 -10
c118 -26 153 -68 81 -98 -134 -56 -590 -58 -713 -4 -23 10 -22 11 10 6 90 -13
360 -17 444 -6 106 14 168 37 164 60 -7 33 -50 35 -123 6 -61 -24 -79 -27
-150 -23 -122 7 -207 55 -291 165 -20 26 -40 56 -44 68 -5 11 -15 37 -24 58
-23 53 -11 46 18 -11 63 -125 186 -212 301 -212 34 0 83 7 109 16 87 30 193
147 237 265 17 43 17 51 4 46 -8 -4 -54 -14 -102 -23 -109 -20 -346 -14 -438
11 -68 19 -126 47 -144 69 -17 20 -19 20 59 -5 188 -58 530 -39 617 35 64 55
-24 101 -257 134 -61 9 -62 9 -20 11 25 0 84 -4 130 -9z m2468 -50 c2 -11 -5
-16 -25 -15 -18 0 -29 -6 -31 -17 -3 -14 3 -18 28 -18 21 0 30 -4 28 -12 -3
-7 -15 -13 -29 -13 -23 0 -24 -4 -27 -67 -2 -52 -6 -68 -17 -68 -12 0 -15 15
-15 69 0 46 -4 71 -12 75 -10 5 -10 7 0 12 6 3 12 14 12 24 0 40 81 67 88 30z
m-1604 -20 c27 -27 12 -38 -24 -17 -34 20 -75 14 -90 -13 -14 -26 -12 -93 3
-113 6 -9 24 -19 39 -22 22 -6 32 -1 52 20 23 24 26 25 32 10 11 -28 -30 -60
-76 -60 -61 0 -94 38 -94 109 -1 44 4 59 23 80 38 40 98 43 135 6z m536 17 c0
-19 -10 -27 -26 -20 -21 8 -17 33 6 33 11 0 20 -6 20 -13z m765 -18 c17 -17
18 -21 6 -29 -10 -6 -19 -3 -27 7 -15 21 -70 21 -92 -1 -27 -27 -23 -103 7
-127 30 -24 56 -24 81 1 37 37 55 20 21 -21 -14 -18 -29 -24 -61 -24 -35 0
-47 6 -71 33 -69 77 -10 203 86 186 17 -3 39 -15 50 -25z m-2113 -4 c65 -23
79 -42 49 -66 -42 -34 -100 -44 -266 -44 -161 0 -221 9 -260 40 -19 14 -18 15
10 8 77 -20 235 -2 235 26 0 14 -46 30 -112 38 -63 7 -63 7 -23 14 73 13 316
2 367 -16z m1698 -25 c-6 -11 -8 -31 -4 -44 7 -30 -25 -66 -61 -66 -14 0 -25
-4 -25 -10 0 -5 14 -10 31 -10 63 0 90 -41 52 -82 -21 -23 -89 -24 -115 -1
-22 19 -24 51 -4 59 8 3 12 12 9 20 -3 8 0 21 6 28 8 10 9 16 1 21 -14 9 -13
58 2 73 7 7 27 12 44 12 18 0 36 5 39 10 3 6 13 10 21 10 12 0 12 -4 4 -20z
m-810 -12 c0 -9 3 -9 12 0 17 17 58 15 58 -3 0 -9 -9 -15 -25 -15 -30 0 -45
-30 -45 -91 0 -28 -4 -39 -15 -39 -12 0 -15 16 -15 80 0 64 3 80 15 80 8 0 15
-5 15 -12z m198 0 c7 -7 12 -38 12 -70 0 -32 4 -58 10 -58 6 0 10 -5 10 -10 0
-6 -12 -9 -27 -8 -16 1 -38 -2 -50 -6 -12 -4 -31 -3 -41 3 -45 24 -27 84 28
96 35 8 47 22 31 38 -9 9 -19 8 -41 -5 -32 -18 -50 -7 -30 17 15 18 81 20 98
3z m98 -53 c21 -57 23 -59 32 -35 30 79 43 100 56 100 13 0 14 -5 5 -27 -6
-16 -20 -52 -31 -81 -27 -72 -51 -69 -83 11 -38 93 -39 99 -19 95 10 -2 26
-26 40 -63z m164 -15 c0 -64 -3 -80 -15 -80 -12 0 -15 16 -15 80 0 64 3 80 15
80 12 0 15 -16 15 -80z m167 69 c20 -17 18 -149 -2 -149 -12 0 -15 14 -15 64
0 69 -13 86 -51 66 -15 -9 -19 -22 -19 -70 0 -47 -3 -60 -15 -60 -12 0 -15 15
-15 79 l0 78 52 2 c28 0 57 -4 65 -10z m318 -9 c0 -8 -7 -13 -15 -11 -60 16
-78 -15 -20 -34 24 -8 38 -21 45 -39 8 -24 6 -31 -15 -48 -26 -21 -69 -19 -97
4 -22 18 0 31 30 17 14 -6 33 -9 41 -6 30 12 17 35 -26 49 -46 14 -61 45 -37
74 17 20 94 15 94 -6z m433 8 c7 -7 12 -38 12 -70 0 -32 4 -58 10 -58 6 0 10
-5 10 -11 0 -7 -11 -9 -27 -6 -15 3 -36 1 -47 -5 -24 -13 -62 4 -71 31 -10 31
11 59 50 67 40 7 53 20 36 37 -9 9 -19 8 -41 -5 -32 -18 -50 -7 -30 17 15 18
81 20 98 3z m286 -4 c9 -8 16 -29 16 -45 0 -29 -1 -29 -55 -29 -57 0 -66 -8
-39 -34 19 -20 34 -20 61 -1 27 19 43 1 19 -23 -24 -25 -85 -21 -107 7 -26 32
-25 95 1 121 24 24 82 27 104 4z m-1804 -334 c0 -5 -7 -10 -15 -10 -12 0 -15
-13 -15 -55 0 -42 -3 -55 -15 -55 -12 0 -15 13 -15 55 0 41 -4 55 -14 55 -8 0
-18 5 -21 10 -4 6 13 10 44 10 28 0 51 -4 51 -10z m40 -15 c0 -21 5 -25 30
-25 25 0 30 4 30 25 0 16 6 25 15 25 12 0 15 -14 15 -65 0 -51 -3 -65 -15 -65
-10 0 -15 10 -15 30 0 28 -3 30 -27 27 -22 -3 -29 -10 -31 -30 -6 -53 -22 -26
-22 38 0 37 4 65 10 65 6 0 10 -11 10 -25z m198 1 c2 -10 -2 -29 -9 -43 -10
-18 -10 -26 -1 -35 16 -16 15 -28 -1 -28 -8 0 -19 11 -25 25 -6 14 -16 25 -22
25 -5 0 -10 -11 -10 -25 0 -14 -4 -25 -10 -25 -6 0 -10 29 -10 66 l0 65 42 -3
c33 -2 44 -8 46 -22z m52 -41 c0 -37 -4 -65 -10 -65 -6 0 -10 28 -10 65 0 37
4 65 10 65 6 0 10 -28 10 -65z m58 13 l19 -52 17 52 c10 30 24 52 32 52 14 0
12 -4 -33 -117 -4 -11 -33 -19 -33 -10 0 2 -11 31 -24 65 -19 47 -21 62 -11
62 8 0 22 -23 33 -52z m172 42 c0 -5 -11 -10 -25 -10 -32 0 -34 -27 -2 -32 27
-4 26 -22 -3 -26 -29 -5 -25 -32 5 -32 14 0 25 -4 25 -10 0 -5 -18 -10 -40
-10 l-40 0 0 65 0 65 40 0 c22 0 40 -4 40 -10z m230 -15 c0 -21 5 -25 30 -25
25 0 30 4 30 25 0 16 6 25 15 25 12 0 15 -14 15 -65 0 -51 -3 -65 -15 -65 -9
0 -15 9 -15 23 0 31 -5 35 -35 29 -18 -3 -25 -11 -25 -28 0 -13 -4 -24 -10
-24 -6 0 -10 28 -10 65 0 37 4 65 10 65 6 0 10 -11 10 -25z m190 15 c0 -5 -11
-10 -25 -10 -16 0 -25 -6 -25 -15 0 -8 9 -15 20 -15 11 0 20 -7 20 -15 0 -8
-9 -15 -20 -15 -11 0 -20 -7 -20 -15 0 -9 9 -15 25 -15 14 0 25 -4 25 -10 0
-5 -18 -10 -40 -10 l-40 0 0 65 0 65 40 0 c22 0 40 -4 40 -10z m104 -42 c9
-29 20 -59 23 -65 2 -7 -2 -13 -11 -13 -9 0 -16 4 -16 9 0 15 -51 20 -57 5 -3
-8 -12 -14 -20 -14 -8 0 -12 6 -10 13 3 6 14 36 23 65 12 34 23 52 34 52 11 0
22 -18 34 -52z m66 -3 c0 -52 1 -55 25 -55 14 0 25 -4 25 -10 0 -5 -16 -10
-35 -10 l-35 0 0 65 c0 37 4 65 10 65 6 0 10 -25 10 -55z m150 45 c0 -5 -9
-10 -20 -10 -18 0 -20 -7 -20 -55 0 -30 -4 -55 -10 -55 -5 0 -10 25 -10 55 0
48 -2 55 -20 55 -11 0 -20 5 -20 10 0 6 23 10 50 10 28 0 50 -4 50 -10z m40
-15 c0 -21 5 -25 30 -25 25 0 30 4 30 25 0 14 5 25 10 25 6 0 10 -28 10 -65 0
-37 -4 -65 -10 -65 -5 0 -10 12 -10 28 0 23 -4 27 -30 27 -26 1 -30 -3 -30
-27 0 -15 -4 -28 -10 -28 -6 0 -10 28 -10 65 0 37 4 65 10 65 6 0 10 -11 10
-25z m132 0 c6 -14 15 -25 19 -25 5 0 11 11 15 25 3 14 12 25 20 25 18 0 18
-3 -6 -50 -11 -22 -20 -48 -20 -60 0 -11 -4 -20 -10 -20 -5 0 -10 9 -10 20 0
12 -9 38 -20 60 -23 45 -24 50 -10 50 6 0 16 -11 22 -25z m298 15 c0 -5 -11
-10 -25 -10 -16 0 -25 -6 -25 -15 0 -8 9 -15 20 -15 11 0 20 -5 20 -11 0 -6
-9 -13 -20 -16 -13 -3 -20 -14 -20 -29 0 -15 -6 -24 -15 -24 -12 0 -15 14 -15
65 l0 65 40 0 c22 0 40 -4 40 -10z m40 -55 c0 -37 -4 -65 -10 -65 -6 0 -10 28
-10 65 0 37 4 65 10 65 6 0 10 -28 10 -65z m118 41 c2 -10 -2 -29 -9 -43 -10
-18 -10 -26 -1 -35 16 -16 15 -28 -1 -28 -8 0 -19 11 -25 25 -6 14 -16 25 -22
25 -5 0 -10 -11 -10 -25 0 -14 -4 -25 -10 -25 -6 0 -10 29 -10 66 l0 65 42 -3
c33 -2 44 -8 46 -22z m102 14 c0 -5 -11 -10 -25 -10 -32 0 -34 -27 -2 -32 27
-4 26 -22 -3 -26 -29 -5 -25 -32 5 -32 14 0 25 -4 25 -10 0 -5 -18 -10 -40
-10 l-40 0 0 65 0 65 40 0 c22 0 40 -4 40 -10z m-1345 -55 c0 -13 -8 -21 -22
-23 -17 -3 -23 2 -23 16 0 10 3 22 7 26 13 13 38 1 38 -19z m923 -3 c3 -16 -2
-22 -17 -22 -24 0 -35 15 -27 36 9 23 40 13 44 -14z"/>
<path d="M1312 973 c-11 -10 -24 -37 -30 -61 -8 -36 -7 -45 10 -67 32 -41 56
-50 80 -28 45 39 72 135 46 161 -18 18 -83 15 -106 -5z"/>
<path d="M2697 1073 c-4 -3 -7 -17 -7 -30 0 -18 5 -23 25 -23 14 0 28 7 31 15
11 27 -30 58 -49 38z"/>
<path d="M2675 930 c-12 -19 10 -32 46 -28 48 4 46 32 -3 36 -20 2 -39 -2 -43
-8z"/>
<path d="M2120 1010 c-32 -7 -42 -50 -12 -50 23 0 45 23 40 43 -2 9 -11 11
-28 7z"/>
<path d="M3303 1012 c-26 -4 -47 -27 -38 -42 9 -15 41 -12 55 5 17 21 8 40
-17 37z"/>
<path d="M3554 1063 c-17 -17 -16 -18 20 -21 45 -4 54 2 36 23 -16 20 -35 19
-56 -2z"/>
<path d="M2000 720 c0 -16 5 -21 23 -18 12 2 22 10 22 18 0 8 -10 16 -22 18
-18 3 -23 -2 -23 -18z"/>
<path d="M2830 695 c0 -8 7 -15 15 -15 9 0 12 6 9 15 -4 8 -10 15 -15 15 -5 0
-9 -7 -9 -15z"/>
<path d="M3650 720 c0 -16 5 -21 23 -18 12 2 22 10 22 18 0 8 -10 16 -22 18
-18 3 -23 -2 -23 -18z"/>
</g>
</svg>
